<svg width="33" height="32" viewBox="0 0 33 32" fill="none" xmlns="http://www.w3.org/2000/svg">
<path fill-rule="evenodd" clip-rule="evenodd" d="M11 12.5C11 15.5376 13.4624 18 16.5 18C19.5376 18 22 15.5376 22 12.5C22 9.46243 19.5376 7 16.5 7C13.4624 7 11 9.46243 11 12.5ZM16.5 4C11.8056 4 8 7.80558 8 12.5C8 16.6324 10.9489 20.076 14.8571 20.8414V22.5142H12.1143V25.2571H14.8571V28.0002H17.6V25.2571H20.3429V22.5142H17.6V20.9295C21.7748 20.3901 25 16.8217 25 12.5C25 7.80558 21.1944 4 16.5 4Z" fill="white"/>
</svg>
