<svg width="33" height="32" viewBox="0 0 33 32" fill="none" xmlns="http://www.w3.org/2000/svg">
<path fill-rule="evenodd" clip-rule="evenodd" d="M20.0454 10.6587L22.2551 8.44898H18.5V6H26.5V14H24.051V10.2449L21.8413 12.4546C22.8837 13.8658 23.5 15.6109 23.5 17.5C23.5 22.1944 19.6944 26 15 26C10.3056 26 6.5 22.1944 6.5 17.5C6.5 12.8056 10.3056 9 15 9C16.8891 9 18.6342 9.61625 20.0454 10.6587ZM15 23C11.9624 23 9.5 20.5376 9.5 17.5C9.5 14.4624 11.9624 12 15 12C18.0376 12 20.5 14.4624 20.5 17.5C20.5 20.5376 18.0376 23 15 23Z" fill="white"/>
</svg>
