<svg width="33" height="32" viewBox="0 0 33 32" fill="none" xmlns="http://www.w3.org/2000/svg">
<path fill-rule="evenodd" clip-rule="evenodd" d="M24.0412 5.36607L22.2407 7.16658C21.0909 6.31718 19.6689 5.81505 18.1296 5.81505C15.6502 5.81505 13.475 7.11796 12.2515 9.07647C8.50701 9.16904 5.5 12.2335 5.5 16.0002C5.5 19.3674 7.90282 22.1733 11.0873 22.7969V24.1596H8.85236V26.3946H11.0873V28.6298H13.3223V26.3946H15.5571V24.1596H13.3223V22.8687C15.424 22.5971 17.2304 21.3833 18.3041 19.6647C22.0485 19.5722 25.0556 16.5077 25.0556 12.741C25.0556 11.2017 24.5534 9.77975 23.704 8.62992L25.5045 6.82941V9.88912H27.5V3.37061H20.9815V5.36607H24.0412ZM19.3356 16.4782C20.9138 15.9693 22.0556 14.4885 22.0556 12.741C22.0556 10.5727 20.2979 8.81505 18.1296 8.81505C17.1298 8.81505 16.2173 9.1888 15.5241 9.80422C17.7938 10.9413 19.3519 13.2888 19.3519 16.0002C19.3519 16.1609 19.3464 16.3203 19.3356 16.4782ZM14.2108 12.5026C15.4818 13.1525 16.3519 14.4747 16.3519 16.0002C16.3519 16.0803 16.3495 16.1598 16.3447 16.2386C15.0738 15.5887 14.2037 14.2665 14.2037 12.741C14.2037 12.6609 14.2061 12.5814 14.2108 12.5026ZM11.2199 12.263C11.2092 12.4209 11.2037 12.5803 11.2037 12.741C11.2037 15.4524 12.7618 17.7999 15.0314 18.937C14.3383 19.5524 13.4258 19.9262 12.4259 19.9262C10.2577 19.9262 8.5 18.1685 8.5 16.0002C8.5 14.2527 9.64174 12.7719 11.2199 12.263Z" fill="white"/>
</svg>
